<?xml version="1.0" encoding="UTF-8"?>
<svg version="1.1" xmlns="http://www.w3.org/2000/svg" width="829" height="842">
<path d="M0 0 C273.57 0 547.14 0 829 0 C829 277.86 829 555.72 829 842 C555.43 842 281.86 842 0 842 C0 564.14 0 286.28 0 0 Z " fill="#FDF2E8" transform="translate(0,0)"/>
<path d="M0 0 C2.1360075 0.33453421 4.26887142 0.61997275 6.41552734 0.87548828 C14.16759147 1.83051505 21.53735311 3.5390413 29.03759766 5.70605469 C31.77587029 6.48653683 34.52328472 7.23049454 37.27099609 7.97705078 C65.50913016 15.762586 65.50913016 15.762586 73.37255859 28.37158203 C73.75541016 28.95294922 74.13826172 29.53431641 74.53271484 30.13330078 C77.0873401 36.94167413 76.53498768 47.79513795 73.74755859 54.49658203 C72.62255859 56.52001953 72.62255859 56.52001953 71.37255859 58.37158203 C70.96005859 59.00322266 70.54755859 59.63486328 70.12255859 60.28564453 C66.28222947 65.41335671 61.52686687 68.61985197 55.37255859 70.37158203 C46.68243745 71.58425889 38.43746556 71.0292344 30.34130859 67.57861328 C12.72517661 60.41626488 -7.71142742 56.70224171 -26.62744141 56.37158203 C-27.60600098 56.35111816 -28.58456055 56.3306543 -29.59277344 56.30957031 C-83.34907355 55.33452724 -133.63368304 69.72283826 -175.62744141 104.37158203 C-176.19269531 104.83532227 -176.75794922 105.2990625 -177.34033203 105.77685547 C-190.05777451 116.27190034 -201.37771374 127.36569114 -211.27294922 140.57714844 C-212.60611727 142.34333178 -213.96871414 144.08283524 -215.33837891 145.82080078 C-223.43731168 156.26461997 -229.60880819 167.63382621 -235.62744141 179.37158203 C-236.20969482 180.49717529 -236.20969482 180.49717529 -236.80371094 181.64550781 C-245.87703913 199.3687148 -252.13658614 218.42530046 -256.12353516 237.90966797 C-256.44300968 239.47051153 -256.77486927 241.02891297 -257.12353516 242.58349609 C-264.17244947 274.49294086 -260.57564942 310.2825757 -251.62744141 341.37158203 C-251.28583984 342.60263672 -250.94423828 343.83369141 -250.59228516 345.10205078 C-237.63593096 388.70042895 -212.35527822 428.95171184 -176.62744141 457.37158203 C-175.80244141 458.05220703 -174.97744141 458.73283203 -174.12744141 459.43408203 C-147.24677678 481.49001198 -113.88006805 497.26026194 -79.62744141 503.37158203 C-77.73989136 503.74512817 -77.73989136 503.74512817 -75.81420898 504.1262207 C-63.74568661 506.429106 -51.95602248 506.92822363 -39.68994141 506.87158203 C-38.70764557 506.87048431 -37.72534973 506.8693866 -36.71328735 506.86825562 C-20.5495583 506.81657342 -5.31081794 505.56367024 10.37255859 501.37158203 C11.13584473 501.1740332 11.89913086 500.97648437 12.68554688 500.77294922 C17.33487489 499.53782147 21.85224976 498.01483832 26.37255859 496.37158203 C27.15195801 496.10007324 27.93135742 495.82856445 28.734375 495.54882812 C56.9492052 485.69784345 81.94251107 470.68098775 103.99365234 450.52783203 C106.14766368 448.57542767 108.34283586 446.68880844 110.56005859 444.80908203 C114.56835869 441.30481967 117.95885258 437.44691354 121.37255859 433.37158203 C122.11119141 432.53240234 122.84982422 431.69322266 123.61083984 430.82861328 C136.90436078 415.45731714 147.92274592 397.75329693 156.15771484 379.18408203 C156.63136475 378.11754395 157.10501465 377.05100586 157.59301758 375.95214844 C158.50351472 373.8741322 159.39614743 371.7881602 160.26733398 369.69335938 C163.73912366 361.6973583 168.0612497 356.15735085 175.41943359 351.40283203 C182.83111411 348.81462614 191.71679468 349.12295302 198.87255859 352.37158203 C205.90145838 356.53512333 210.75166509 362.16595523 212.93896484 370.08642578 C217.30107699 393.07593576 196.3266843 423.06498152 183.99951172 441.20849609 C176.69644288 451.75801629 168.76739854 461.68291884 160.37255859 471.37158203 C159.83759766 471.99556885 159.30263672 472.61955566 158.75146484 473.26245117 C148.95903223 484.60083921 138.29165559 495.27799305 126.37255859 504.37158203 C125.20822867 505.287909 124.04418496 506.20459971 122.88037109 507.12158203 C99.27669992 525.50325577 72.04210361 540.56232756 43.37255859 549.37158203 C42.32583984 549.72091797 41.27912109 550.07025391 40.20068359 550.43017578 C26.64778011 554.85034862 12.45597325 558.16875388 -1.62744141 560.37158203 C-3.14917969 560.62089478 -3.14917969 560.62089478 -4.70166016 560.87524414 C-15.39813374 562.48106272 -25.94707895 562.76747884 -36.75244141 562.74658203 C-38.12524765 562.74726181 -38.12524765 562.74726181 -39.52578735 562.74795532 C-55.88557894 562.72429112 -71.51111825 561.28242218 -87.62744141 558.37158203 C-89.02273246 558.15068121 -90.41849313 557.93270138 -91.81494141 557.71923828 C-100.00223293 556.32118515 -107.87546755 553.90285419 -115.81494141 551.49658203 C-116.89670654 551.16883789 -117.97847168 550.84109375 -119.09301758 550.50341797 C-151.7525214 540.31490767 -182.09042459 522.78286699 -208.62744141 501.37158203 C-209.15982422 500.94361328 -209.69220703 500.51564453 -210.24072266 500.07470703 C-224.99928423 488.09878594 -239.1779119 474.57329818 -250.62744141 459.37158203 C-251.55106404 458.18731976 -252.47561279 457.00377944 -253.40087891 455.82080078 C-271.51092752 432.44044506 -285.52316348 406.6606254 -295.67675781 378.8984375 C-296.61036617 376.41696689 -297.62623297 373.98291721 -298.65478516 371.53955078 C-301.06381969 365.55013785 -302.59972381 359.38431559 -304.12744141 353.12158203 C-304.42932373 351.89157471 -304.73120605 350.66156738 -305.04223633 349.39428711 C-318.21582568 294.80081092 -317.15361424 236.16753898 -296.62744141 183.37158203 C-296.34441162 182.63697754 -296.06138184 181.90237305 -295.76977539 181.14550781 C-283.36614122 149.14326075 -267.20702007 118.64266374 -244.08520508 93.00170898 C-242.48052572 91.2072953 -240.91338298 89.38294822 -239.34228516 87.55908203 C-228.78521262 75.48953905 -217.28587084 64.0730481 -204.31787109 54.61328125 C-202.5702452 53.32956875 -200.85212085 52.01249644 -199.13525391 50.68798828 C-181.50051865 37.22624872 -161.37859098 24.98017688 -140.46337891 17.41455078 C-137.98784852 16.50412845 -135.63710787 15.49299581 -133.25244141 14.37158203 C-92.85240937 -3.72879075 -43.32901358 -6.95464743 0 0 Z " fill="#FD9E8E" transform="translate(453.62744140625,143.62841796875)"/>
<path d="M0 0 C7.92607703 5.76644368 13.60248347 11.97671748 15.6796875 21.77734375 C17.65795628 35.50459909 12.99800154 46.01528145 5 57 C1.46016629 61.0252139 -2.32386108 64.77020908 -6.15625 68.51171875 C-7.22902654 69.57445751 -8.30082546 70.63818392 -9.3717041 71.70283508 C-12.16820483 74.47860492 -14.97607805 77.24255789 -17.78717041 80.00354004 C-22.28721341 84.42773511 -26.7683964 88.87105261 -31.25151062 93.31238747 C-32.80306317 94.84648953 -34.35888577 96.37614144 -35.91564941 97.904953 C-40.55235861 102.47141858 -45.03517819 107.09058428 -49.26574707 112.03718567 C-52.72323297 115.95034202 -56.47786045 119.57804591 -60.1875 123.25 C-61.47950317 124.53632324 -61.47950317 124.53632324 -62.79760742 125.84863281 C-66.45013983 129.48494939 -70.10863635 133.11524371 -73.76660156 136.74609375 C-76.45065156 139.41197597 -79.13163241 142.0809181 -81.8125 144.75 C-82.62936279 145.55856445 -83.44622559 146.36712891 -84.2878418 147.20019531 C-87.77945069 150.676974 -91.19626243 154.16281281 -94.40429688 157.90429688 C-98.44763521 162.60273043 -102.83019178 166.94320889 -107.23036194 171.30552673 C-108.75593977 172.81812332 -110.27818086 174.33401202 -111.79968262 175.85070801 C-115.57616982 179.61395801 -119.35813511 183.37168668 -123.13995361 187.12957764 C-126.34759868 190.31735668 -129.55309295 193.50727042 -132.75587463 196.69993591 C-134.24203689 198.17970556 -135.73121996 199.65638565 -137.22058105 201.13293457 C-141.82144197 205.71723763 -146.28503502 210.34458415 -150.51217651 215.27618408 C-154.23354916 219.58782552 -158.30885 223.57823819 -162.3125 227.625 C-163.19873047 228.54023437 -164.08496094 229.45546875 -164.99804688 230.3984375 C-176.97115978 242.48508102 -189.41426948 248.33191384 -206.5 248.5 C-224.43197766 248.30783196 -237.23922566 241.3843377 -249.75683594 228.80834961 C-250.55674454 228.02026917 -251.35665314 227.23218872 -252.18080139 226.42022705 C-254.79241384 223.84120898 -257.38908926 221.24778371 -259.984375 218.65234375 C-261.81240493 216.83464504 -263.64080078 215.01731427 -265.46954346 213.20033264 C-269.28892333 209.40032073 -273.10038423 205.59259393 -276.90673828 201.77954102 C-281.27942153 197.39962183 -285.67202808 193.0404323 -290.07468009 188.6906566 C-294.34312237 184.47160038 -298.59159477 180.23299904 -302.83307648 175.98681831 C-304.62469425 174.19805517 -306.42185747 172.41482704 -308.22484589 170.63752556 C-330.17010773 148.97233702 -330.17010773 148.97233702 -331.859375 134.828125 C-331.86712761 133.30166757 -331.83128786 131.77431121 -331.75 130.25 C-331.71326172 129.03606567 -331.71326172 129.03606567 -331.67578125 127.79760742 C-331.15091127 117.91752658 -327.28833337 111.40703128 -320.125 104.69140625 C-312.09454606 98.2995192 -304.02776529 97.38114363 -294 98 C-283.25973452 99.79257613 -275.29385264 106.20613385 -267.90722656 113.84741211 C-267.26045456 114.50338379 -266.61368256 115.15935547 -265.9473114 115.83520508 C-264.55924932 117.24455104 -263.17460341 118.65726851 -261.79312897 120.07307243 C-259.60663099 122.31215531 -257.4093093 124.540084 -255.2086792 126.76527405 C-248.95926853 133.08772849 -242.72741152 139.42728379 -236.50830078 145.77954102 C-232.69158158 149.67643892 -228.86050978 153.55873439 -225.02013397 157.43231392 C-223.56155499 158.90953818 -222.10869632 160.39243302 -220.66168976 161.8809948 C-218.6462635 163.95384664 -216.61322832 166.00775664 -214.57519531 168.05834961 C-213.98081161 168.6790181 -213.38642792 169.29968658 -212.77403259 169.93916321 C-209.59155919 173.18913415 -209.59155919 173.18913415 -205.29544067 174.04837036 C-202.94571102 172.97520521 -201.50737035 171.997815 -199.69775391 170.16772461 C-199.10008209 169.57297836 -198.50241028 168.97823212 -197.8866272 168.36546326 C-197.25630585 167.71763382 -196.6259845 167.06980438 -195.9765625 166.40234375 C-195.31216156 165.73465469 -194.64776062 165.06696564 -193.96322632 164.37904358 C-191.84096816 162.2410485 -189.73323453 160.08931498 -187.625 157.9375 C-186.21441003 156.51541417 -184.80296029 155.09418061 -183.390625 153.67382812 C-182.02266737 152.29242888 -180.65545619 150.91028997 -179.2890625 149.52734375 C-178.66278961 148.89368393 -178.03651672 148.26002411 -177.39126587 147.60716248 C-174.35764951 144.50907804 -171.42108863 141.36617721 -168.59130859 138.08032227 C-164.68474628 133.56956835 -160.49048654 129.38247069 -156.25 125.1875 C-155.02458496 123.96776489 -155.02458496 123.96776489 -153.77441406 122.72338867 C-150.31304958 119.2782266 -146.84571409 115.8390971 -143.37890625 112.39941406 C-140.83384812 109.87253492 -138.29186869 107.34258685 -135.75 104.8125 C-134.97688477 104.04768311 -134.20376953 103.28286621 -133.40722656 102.49487305 C-129.99419197 99.09712182 -126.66905045 95.67872418 -123.52734375 92.02734375 C-119.51646425 87.3705281 -115.17854071 83.071687 -110.8125 78.75 C-109.52049683 77.46367676 -109.52049683 77.46367676 -108.20239258 76.15136719 C-104.54986017 72.51505061 -100.89136365 68.88475629 -97.23339844 65.25390625 C-94.54934844 62.58802403 -91.86836759 59.9190819 -89.1875 57.25 C-88.37063721 56.44143555 -87.55377441 55.63287109 -86.7121582 54.79980469 C-82.55897519 50.66426184 -78.592173 46.45002343 -74.76992798 42.00814819 C-69.07645063 35.54836769 -62.85094341 29.54332697 -56.78588867 23.43579102 C-55.05359582 21.68689628 -53.32669162 19.93264754 -51.60522461 18.1730957 C-49.09667514 15.60952894 -46.57183907 13.06303608 -44.04296875 10.51953125 C-43.28533737 9.7392305 -42.52770599 8.95892975 -41.74711609 8.15498352 C-29.97471469 -3.57192021 -15.25665629 -8.01403013 0 0 Z " fill="#4B525E" transform="translate(624,305)"/>
<path d="M0 0 C0.33 0 0.66 0 1 0 C1.03758423 0.99181274 1.03758423 0.99181274 1.07592773 2.00366211 C1.19153102 4.98182305 1.31441754 7.9596392 1.4375 10.9375 C1.47681641 11.97841797 1.51613281 13.01933594 1.55664062 14.09179688 C1.59853516 15.08115234 1.64042969 16.07050781 1.68359375 17.08984375 C1.73858032 18.46450806 1.73858032 18.46450806 1.79467773 19.86694336 C1.77003864 21.9820728 1.77003864 21.9820728 3 23 C3.09699337 24.4129912 3.12447388 25.83081705 3.1241985 27.24713331 C3.1264458 28.17102361 3.12869311 29.09491391 3.13100851 30.04680089 C3.12706797 31.59031793 3.12706797 31.59031793 3.12304783 33.16501713 C3.12420157 34.25219355 3.12535532 35.33936997 3.12654402 36.45949113 C3.12921806 40.150016 3.12468308 43.8404984 3.12025452 47.53102112 C3.12069145 50.17769483 3.12152514 52.82436568 3.12284851 55.47103882 C3.12493343 61.25835391 3.12326706 67.04565874 3.11921513 72.83297265 C3.11313165 81.55041258 3.11284368 90.26784625 3.11368043 98.98528792 C3.11492471 113.5917513 3.11162001 128.1982102 3.10557556 142.80467224 C3.09741701 162.55463827 3.09547353 182.30459663 3.09460449 202.05456543 C3.08934731 249.5572112 3.07538629 297.05985569 3.0625 344.5625 C3.041875 450.636875 3.02125 556.71125 3 666 C-270.57 666 -544.14 666 -826 666 C-826 607.26 -826 548.52 -826 488 C-825.67 488 -825.34 488 -825 488 C-824.90203125 488.92296875 -824.8040625 489.8459375 -824.703125 490.796875 C-821.95524242 514.76978166 -816.56945456 537.25332349 -806 559 C-805.64389648 559.73283203 -805.28779297 560.46566406 -804.92089844 561.22070312 C-796.46697247 578.37205248 -785.43082792 594.3172939 -771.43359375 607.44140625 C-770 609 -770 609 -770 611 C-769.43667969 611.23976563 -768.87335937 611.47953125 -768.29296875 611.7265625 C-765.51740852 613.26801503 -763.59239041 615.1631126 -761.3125 617.375 C-726.95887193 649.0719475 -682.19330879 662.16400147 -636.33647156 662.14044189 C-634.3216548 662.14302807 -632.30683855 662.14604193 -630.292023 662.1494453 C-624.76838565 662.15748903 -619.24476132 662.1593034 -613.72111881 662.16004276 C-607.75832516 662.16189793 -601.79553818 662.16944764 -595.83274841 662.17617798 C-582.11997813 662.19045072 -568.40720884 662.19628571 -554.69443282 662.20086992 C-547.91034012 662.20320957 -541.12624826 662.20681265 -534.34215621 662.2105653 C-511.09561912 662.22339856 -487.84908248 662.23411731 -464.60254192 662.2375679 C-463.14446566 662.23778953 -461.6863894 662.23801131 -460.22831314 662.23823325 C-458.76681933 662.23845389 -457.30532552 662.23867437 -455.84383172 662.2388947 C-452.91208247 662.23933724 -449.98033323 662.23978436 -447.04858398 662.24023438 C-445.95823681 662.24039846 -445.95823681 662.24039846 -444.84586242 662.24056586 C-421.29357745 662.24419384 -397.74132332 662.26010525 -374.18905015 662.28342474 C-349.25779943 662.3080642 -324.32656632 662.32174267 -299.39530307 662.32293582 C-296.65427545 662.32310726 -293.91324784 662.32332268 -291.17222023 662.32357025 C-290.49735738 662.32362602 -289.82249453 662.32368179 -289.12718129 662.32373925 C-278.30302743 662.32488618 -267.4789054 662.33587771 -256.65476225 662.35045731 C-245.7582294 662.36487969 -234.86173893 662.36777621 -223.96519925 662.36001733 C-218.07098777 662.35612547 -212.17688256 662.35696849 -206.28268433 662.37107468 C-200.87313652 662.38390185 -195.4637739 662.38253951 -190.05422602 662.37048396 C-188.11068996 662.36854211 -186.16714037 662.37153428 -184.22362324 662.38032833 C-166.19436744 662.45665715 -148.58068373 660.71281457 -131.3125 655.3125 C-130.17167969 654.96292236 -129.03085937 654.61334473 -127.85546875 654.25317383 C-102.39575044 646.24133668 -79.78520689 633.16709269 -60.21875 615.0078125 C-58.66352414 613.60044262 -57.05452488 612.25132061 -55.41015625 610.94921875 C-51.78113099 608.01423722 -48.98182679 604.5770999 -46 601 C-45.57299805 600.50129395 -45.14599609 600.00258789 -44.70605469 599.48876953 C-18.73083776 569.06970888 -0.80798948 527.68203002 -0.8613348 487.26940155 C-0.85849258 486.42273745 -0.85565036 485.57607335 -0.85272202 484.70375276 C-0.84441194 481.87178713 -0.84310971 479.03986261 -0.84178162 476.20788574 C-0.83721376 474.15507934 -0.8322134 472.10227386 -0.82681805 470.04946947 C-0.81325309 464.41236569 -0.80582333 458.77526794 -0.79939139 453.13815212 C-0.79138024 447.05779249 -0.77768492 440.97744536 -0.76467896 434.89709473 C-0.74292636 424.36372786 -0.72474305 413.83035911 -0.70907402 403.29698181 C-0.69262731 392.25088524 -0.67414217 381.20479517 -0.65294075 370.15870667 C-0.65096434 369.12808954 -0.65096434 369.12808954 -0.648948 368.07665186 C-0.64224582 364.5872612 -0.63550728 361.0978706 -0.62875474 357.60848004 C-0.58100482 332.89980029 -0.53781602 308.19111447 -0.49731445 283.48242188 C-0.45795982 259.47981322 -0.41653614 235.47720958 -0.37231445 211.47460938 C-0.37095192 210.73460985 -0.36958939 209.99461033 -0.36818558 209.23218658 C-0.35450008 201.8007371 -0.34077255 194.36928771 -0.32701423 186.93783837 C-0.29898847 171.79942036 -0.27124321 156.66100184 -0.2436676 141.52258301 C-0.2417653 140.47854673 -0.2417653 140.47854673 -0.23982458 139.41341881 C-0.15518346 92.94228736 -0.07710157 46.47114451 0 0 Z " fill="#EBE9E8" transform="translate(826,176)"/>
<path d="M0 0 C8.1364408 7.92781412 12.48713662 16.29186767 12.9375 27.5625 C12.64856724 39.18915429 8.90424949 48.00054047 0.75390625 56.28515625 C-7.53585101 63.76411094 -17.52904163 67.17667231 -28.7421875 66.77734375 C-39.7652855 65.20479653 -48.36895204 58.90438842 -55.1875 50.33203125 C-61.21732357 41.34113361 -62.66971584 32.09430937 -61.5625 21.375 C-58.84127013 10.97850641 -52.19276131 1.41687101 -42.9609375 -4.2109375 C-27.89604462 -11.89892118 -13.83935904 -8.77617891 0 0 Z " fill="#FD9C8E" transform="translate(629.5625,192.625)"/>
<path d="M0 0 C2.90381843 0.65990288 5.55930876 1.56695137 8.30859375 2.70703125 C9.13093506 3.04444336 9.95327637 3.38185547 10.80053711 3.72949219 C11.67073486 4.08688477 12.54093262 4.44427734 13.4375 4.8125 C37.79872929 14.62740869 61.53963588 18.1538634 87.66352844 18.14044189 C89.6783452 18.14302807 91.69316145 18.14604193 93.707977 18.1494453 C99.23161435 18.15748903 104.75523868 18.1593034 110.27888119 18.16004276 C116.24167484 18.16189793 122.20446182 18.16944764 128.16725159 18.17617798 C141.88002187 18.19045072 155.59279116 18.19628571 169.30556718 18.20086992 C176.08965988 18.20320957 182.87375174 18.20681265 189.65784379 18.2105653 C212.90438088 18.22339856 236.15091752 18.23411731 259.39745808 18.2375679 C260.85553434 18.23778953 262.3136106 18.23801131 263.77168686 18.23823325 C265.23318067 18.23845389 266.69467448 18.23867437 268.15616828 18.2388947 C271.08791753 18.23933724 274.01966677 18.23978436 276.95141602 18.24023438 C278.04176319 18.24039846 278.04176319 18.24039846 279.15413758 18.24056586 C302.70642255 18.24419384 326.25867668 18.26010525 349.81094985 18.28342474 C374.74220057 18.3080642 399.67343368 18.32174267 424.60469693 18.32293582 C427.34572455 18.32310726 430.08675216 18.32332268 432.82777977 18.32357025 C433.84007404 18.3236539 433.84007404 18.3236539 434.87281871 18.32373925 C445.69697257 18.32488618 456.5210946 18.33587771 467.34523775 18.35045731 C478.2417706 18.36487969 489.13826107 18.36777621 500.03480075 18.36001733 C505.92901223 18.35612547 511.82311744 18.35696849 517.71731567 18.37107468 C523.12686348 18.38390185 528.5362261 18.38253951 533.94577398 18.37048396 C535.88931004 18.36854211 537.83285963 18.37153428 539.77637676 18.38032833 C558.13204139 18.45803904 575.82683401 16.57018157 593.375 11 C594.509375 10.65710938 595.64375 10.31421875 596.8125 9.9609375 C601.3494508 8.56903925 605.78733241 7.17416796 610.1015625 5.1875 C613 4 613 4 616 5 C596.55370408 13.13056338 577.70612332 18.33534939 556.67431641 20.35424805 C553.03074853 20.40101274 553.03074853 20.40101274 550 22 C547.46690413 22.09884786 544.96106931 22.13177509 542.42746639 22.12304783 C541.21770425 22.1247786 541.21770425 22.1247786 539.98350248 22.12654433 C537.24597519 22.12921842 534.50850521 22.12468236 531.77098083 22.12025452 C529.80258786 22.12069006 527.83419495 22.12156465 525.86580235 22.12284368 C520.42950366 22.12509202 514.99322448 22.12106275 509.55692828 22.11606562 C503.70481211 22.11176614 497.85269713 22.11320719 492.00057983 22.1139679 C481.85232213 22.11449345 471.70407083 22.11134336 461.55581474 22.10573006 C446.88295488 22.09761932 432.21009705 22.09499693 417.53723515 22.09374207 C393.73421297 22.09163987 369.93119413 22.08489753 346.12817383 22.07543945 C322.99926776 22.06625982 299.8703626 22.05917386 276.74145508 22.05493164 C276.02892193 22.05480011 275.31638879 22.05466859 274.58226373 22.05453308 C267.4269216 22.05321459 260.27157945 22.05193877 253.1162373 22.05069422 C238.53908511 22.04815779 223.96193299 22.04533653 209.38478088 22.04234314 C208.71449996 22.04220585 208.04421903 22.04206856 207.35362656 22.04192711 C162.56908297 22.03272148 117.78454128 22.01685495 73 22 C73 21.34 73 20.68 73 20 C71.90510254 20.03480469 71.90510254 20.03480469 70.78808594 20.0703125 C63.35964734 20.20334498 56.51494243 19.51140362 49.25 18 C48.18305908 17.78142334 47.11611816 17.56284668 46.0168457 17.33764648 C30.18714124 13.92672345 14.08663544 9.15542052 0 1 C0 0.67 0 0.34 0 0 Z " fill="#E6DBD4" transform="translate(102,820)"/>
<path d="M0 0 C0.66 0.66 1.32 1.32 2 2 C-6.25 10.25 -14.5 18.5 -23 27 C-23.33 26.01 -23.66 25.02 -24 24 C-16.08 16.08 -8.16 8.16 0 0 Z " fill="#E5DED8" transform="translate(556,435)"/>
<path d="M0 0 C0.66 0.66 1.32 1.32 2 2 C0.44073252 3.58651682 -1.12256518 5.16907315 -2.6875 6.75 C-3.55761719 7.63171875 -4.42773438 8.5134375 -5.32421875 9.421875 C-7.78002468 11.78805298 -10.30141048 13.91892556 -13 16 C-13.66 15.67 -14.32 15.34 -15 15 C-10.05 10.05 -5.1 5.1 0 0 Z " fill="#545965" transform="translate(472,426)"/>
<path d="M0 0 C0.33 0.99 0.66 1.98 1 3 C-4.61 8.61 -10.22 14.22 -16 20 C-16.99 19.67 -17.98 19.34 -19 19 C-12.73 12.73 -6.46 6.46 0 0 Z " fill="#F4EBE4" transform="translate(618,372)"/>
<path d="M0 0 C0 4.05959279 -1.51778536 5.00697946 -4.25 7.9375 C-5.03890625 8.79214844 -5.8278125 9.64679688 -6.640625 10.52734375 C-8.73044273 12.71750041 -10.84721565 14.87190354 -13 17 C-13.99 16.67 -14.98 16.34 -16 16 C-10.72 10.72 -5.44 5.44 0 0 Z " fill="#E1DAD5" transform="translate(595,395)"/>
<path d="M0 0 C0.66 0.66 1.32 1.32 2 2 C1.01 2.99 0.02 3.98 -1 5 C-1.66 4.67 -2.32 4.34 -3 4 C-2.01 2.68 -1.02 1.36 0 0 Z M-4 5 C-3.34 5.66 -2.68 6.32 -2 7 C-5.3 10.3 -8.6 13.6 -12 17 C-12 13.24111186 -11.049166 12.58681685 -8.5625 9.875 C-7.92441406 9.17117188 -7.28632812 8.46734375 -6.62890625 7.7421875 C-5.76410115 6.81724008 -4.89538137 5.89538137 -4 5 Z " fill="#FCA995" transform="translate(580,571)"/>
<path d="M0 0 C-0.99 0 -1.98 0 -3 0 C-3 0.66 -3 1.32 -3 2 C-5.87530081 2.9584336 -7.29049931 3.06656387 -10.23046875 2.87890625 C-11.03291016 2.83056641 -11.83535156 2.78222656 -12.66210938 2.73242188 C-13.91217773 2.64831055 -13.91217773 2.64831055 -15.1875 2.5625 C-16.4549707 2.48418945 -16.4549707 2.48418945 -17.74804688 2.40429688 C-19.83236299 2.27476311 -21.91623182 2.13806823 -24 2 C-24 1.67 -24 1.34 -24 1 C-22.89140625 0.93941406 -21.7828125 0.87882813 -20.640625 0.81640625 C-19.1770718 0.73197049 -17.71353075 0.64732401 -16.25 0.5625 C-15.15558594 0.50352539 -15.15558594 0.50352539 -14.0390625 0.44335938 C-9.92984663 0.21667751 -9.92984663 0.21667751 -5.89746094 -0.54711914 C-3.62028221 -1.09063002 -2.20277717 -0.70803552 0 0 Z " fill="#CBC0B8" transform="translate(436,552)"/>
<path d="M0 0 C0.66 0.66 1.32 1.32 2 2 C-1.3 5.3 -4.6 8.6 -8 12 C-8.33 11.01 -8.66 10.02 -9 9 C-6.03 6.03 -3.06 3.06 0 0 Z " fill="#F1E7E0" transform="translate(556,435)"/>
<path d="M0 0 C0.66 0.66 1.32 1.32 2 2 C-0.31 4.31 -2.62 6.62 -5 9 C-5.99 8.67 -6.98 8.34 -8 8 C-5.36 5.36 -2.72 2.72 0 0 Z " fill="#EDE4DD" transform="translate(607,383)"/>
<path d="M0 0 C0.99 0.33 1.98 0.66 3 1 C0.69 3.31 -1.62 5.62 -4 8 C-4.66 7.34 -5.32 6.68 -6 6 C-4.02 4.02 -2.04 2.04 0 0 Z " fill="#F7EAE3" transform="translate(564,427)"/>
<path d="M0 0 C1.41623216 -0.05447047 2.83308191 -0.09300508 4.25 -0.125 C5.03890625 -0.14820313 5.8278125 -0.17140625 6.640625 -0.1953125 C9.20731941 0.0171622 10.7916067 0.71345895 13 2 C10.69 2.33 8.38 2.66 6 3 C6 2.67 6 2.34 6 2 C3.03 1.505 3.03 1.505 0 1 C0 0.67 0 0.34 0 0 Z " fill="#7E8086" transform="translate(604,301)"/>
<path d="M0 0 C-0.33 0.99 -0.66 1.98 -1 3 C-3.375 3.625 -3.375 3.625 -6 4 C-6.66 3.34 -7.32 2.68 -8 2 C-5.09399739 0.74335022 -3.20395416 0 0 0 Z " fill="#595E68" transform="translate(317,404)"/>
</svg>
